<svg id="svg" xmlns="http://www.w3.org/2000/svg" xmlns:xlink="http://www.w3.org/1999/xlink" width="50" height="50" viewBox="0, 0, 400,400"><g id="svgg"><path id="path0" d="M112.857 119.346 C 97.173 128.180,83.482 136.001,82.433 136.726 C 75.739 141.354,70.368 148.854,68.134 156.694 C 66.635 161.953,66.681 161.052,66.571 186.951 L 66.470 210.777 67.798 210.014 C 68.528 209.595,72.523 207.311,76.676 204.939 L 84.226 200.626 84.316 182.126 C 84.421 160.362,84.420 160.369,88.203 154.827 C 91.133 150.535,90.691 150.821,118.125 135.386 C 130.775 128.268,141.211 122.366,141.316 122.269 C 141.420 122.173,141.477 117.862,141.441 112.689 L 141.375 103.284 112.857 119.346 M258.560 112.748 L 258.625 122.285 281.875 135.381 C 312.955 152.886,312.768 152.745,315.550 160.750 L 316.375 163.125 316.500 182.115 L 316.625 201.105 325.000 205.894 L 333.375 210.682 333.449 189.279 C 333.557 158.218,333.014 154.981,326.061 145.269 C 321.313 138.636,320.897 138.358,288.467 120.098 C 273.429 111.631,260.533 104.367,259.810 103.956 L 258.494 103.210 258.560 112.748 M233.408 315.607 C 205.290 332.401,205.592 332.253,199.416 332.248 C 193.333 332.243,193.739 332.424,165.376 317.014 C 151.763 309.618,140.269 303.384,139.834 303.163 L 139.042 302.759 130.238 307.792 L 121.433 312.826 122.154 313.199 C 122.550 313.404,136.431 320.941,153.000 329.947 C 169.569 338.953,183.834 346.641,184.700 347.031 C 195.341 351.824,209.314 350.754,217.749 344.501 C 218.671 343.817,231.677 335.937,246.651 326.989 C 261.624 318.041,273.959 310.637,274.061 310.537 C 274.208 310.391,266.508 305.852,258.930 301.617 L 257.846 301.011 233.408 315.607 " stroke="none" fill="#ccd4dc" fill-rule="evenodd"></path><path id="path1" d="M229.281 99.982 C 213.417 109.047,200.338 116.562,200.217 116.683 C 200.093 116.807,200.026 131.288,200.062 150.059 L 200.125 183.215 229.125 166.643 L 258.125 150.071 258.300 130.521 C 258.396 119.769,258.396 104.791,258.300 97.236 L 258.125 83.501 229.281 99.982 M141.613 112.625 C 141.613 117.850,141.646 120.023,141.687 117.454 C 141.728 114.885,141.728 110.610,141.687 107.954 C 141.647 105.298,141.613 107.400,141.613 112.625 M128.941 241.828 L 100.006 258.375 100.003 291.669 L 100.000 324.964 110.813 318.813 C 122.869 311.955,134.112 305.531,148.563 297.243 L 158.250 291.686 158.250 258.468 C 158.250 240.198,158.166 225.257,158.063 225.265 C 157.959 225.274,144.855 232.727,128.941 241.828 M328.941 241.828 L 300.006 258.375 300.003 291.670 L 300.000 324.964 329.125 308.322 L 358.250 291.680 358.250 258.465 C 358.250 240.197,358.166 225.257,358.063 225.265 C 357.959 225.274,344.855 232.727,328.941 241.828 " stroke="none" fill="#4ccce4" fill-rule="evenodd"></path><path id="path2" d="M199.375 50.299 C 199.100 50.455,198.806 50.686,198.722 50.812 C 198.638 50.939,198.469 51.048,198.347 51.055 C 197.921 51.079,197.000 51.582,197.000 51.790 C 197.000 51.906,196.916 51.980,196.813 51.956 C 196.512 51.886,195.250 52.560,195.250 52.790 C 195.250 52.906,195.166 52.980,195.063 52.956 C 194.762 52.886,193.500 53.560,193.500 53.790 C 193.500 53.906,193.416 53.980,193.313 53.956 C 193.012 53.886,191.750 54.560,191.750 54.790 C 191.750 54.906,191.666 54.980,191.563 54.956 C 191.262 54.886,190.000 55.560,190.000 55.790 C 190.000 55.906,189.916 55.980,189.813 55.956 C 189.512 55.886,188.250 56.560,188.250 56.790 C 188.250 56.906,188.166 56.980,188.063 56.956 C 187.762 56.886,186.500 57.560,186.500 57.790 C 186.500 57.906,186.416 57.980,186.313 57.956 C 186.012 57.886,184.750 58.560,184.750 58.790 C 184.750 58.906,184.666 58.980,184.563 58.956 C 184.262 58.886,183.000 59.560,183.000 59.790 C 183.000 59.906,182.916 59.980,182.813 59.956 C 182.512 59.886,181.250 60.560,181.250 60.790 C 181.250 60.906,181.166 60.980,181.063 60.956 C 180.762 60.886,179.500 61.560,179.500 61.790 C 179.500 61.906,179.416 61.980,179.313 61.956 C 179.012 61.886,177.750 62.560,177.750 62.790 C 177.750 62.906,177.666 62.980,177.563 62.956 C 177.262 62.886,176.000 63.560,176.000 63.790 C 176.000 63.906,175.916 63.980,175.813 63.956 C 175.512 63.886,174.250 64.560,174.250 64.790 C 174.250 64.906,174.166 64.980,174.063 64.956 C 173.762 64.886,172.500 65.560,172.500 65.790 C 172.500 65.906,172.416 65.980,172.313 65.956 C 172.012 65.886,170.750 66.560,170.750 66.790 C 170.750 66.906,170.666 66.980,170.563 66.956 C 170.262 66.886,169.000 67.560,169.000 67.790 C 169.000 67.906,168.916 67.980,168.813 67.956 C 168.512 67.886,167.250 68.560,167.250 68.790 C 167.250 68.906,167.166 68.980,167.063 68.956 C 166.762 68.886,165.500 69.560,165.500 69.790 C 165.500 69.906,165.416 69.980,165.313 69.956 C 165.012 69.886,163.750 70.560,163.750 70.790 C 163.750 70.906,163.666 70.980,163.563 70.956 C 163.262 70.886,162.000 71.560,162.000 71.790 C 162.000 71.906,161.916 71.980,161.813 71.956 C 161.512 71.886,160.250 72.560,160.250 72.790 C 160.250 72.906,160.166 72.980,160.063 72.956 C 159.762 72.886,158.500 73.560,158.500 73.790 C 158.500 73.906,158.416 73.980,158.313 73.956 C 158.012 73.886,156.750 74.560,156.750 74.790 C 156.750 74.906,156.666 74.980,156.563 74.956 C 156.262 74.886,155.000 75.560,155.000 75.790 C 155.000 75.906,154.916 75.980,154.813 75.956 C 154.512 75.886,153.250 76.560,153.250 76.790 C 153.250 76.906,153.166 76.980,153.063 76.956 C 152.762 76.886,151.500 77.560,151.500 77.790 C 151.500 77.906,151.416 77.980,151.313 77.956 C 151.012 77.886,149.750 78.560,149.750 78.790 C 149.750 78.906,149.666 78.980,149.563 78.956 C 149.262 78.886,148.000 79.560,148.000 79.790 C 148.000 79.906,147.916 79.980,147.813 79.956 C 147.512 79.886,146.250 80.560,146.250 80.790 C 146.250 80.906,146.166 80.980,146.063 80.956 C 145.762 80.886,144.500 81.560,144.500 81.790 C 144.500 81.906,144.416 81.980,144.313 81.956 C 144.002 81.884,142.750 82.564,142.750 82.805 C 142.750 82.928,142.664 82.977,142.560 82.912 C 142.455 82.847,142.152 82.953,141.887 83.147 C 141.622 83.341,141.540 83.500,141.705 83.500 C 141.871 83.500,155.002 90.925,170.886 100.000 C 186.770 109.075,199.861 116.500,199.977 116.500 C 200.720 116.500,258.223 83.289,257.918 83.036 C 257.732 82.881,257.505 82.828,257.414 82.919 C 257.324 83.009,257.250 82.970,257.250 82.832 C 257.250 82.571,256.017 81.880,255.688 81.956 C 255.584 81.980,255.500 81.906,255.500 81.790 C 255.500 81.560,254.238 80.886,253.938 80.956 C 253.834 80.980,253.750 80.906,253.750 80.790 C 253.750 80.560,252.488 79.886,252.188 79.956 C 252.084 79.980,252.000 79.906,252.000 79.790 C 252.000 79.560,250.738 78.886,250.438 78.956 C 250.334 78.980,250.250 78.906,250.250 78.790 C 250.250 78.560,248.988 77.886,248.688 77.956 C 248.584 77.980,248.500 77.906,248.500 77.790 C 248.500 77.560,247.238 76.886,246.938 76.956 C 246.834 76.980,246.750 76.906,246.750 76.790 C 246.750 76.560,245.488 75.886,245.188 75.956 C 245.084 75.980,245.000 75.906,245.000 75.790 C 245.000 75.560,243.738 74.886,243.438 74.956 C 243.334 74.980,243.250 74.906,243.250 74.790 C 243.250 74.560,241.988 73.886,241.688 73.956 C 241.584 73.980,241.500 73.906,241.500 73.790 C 241.500 73.560,240.238 72.886,239.938 72.956 C 239.834 72.980,239.750 72.906,239.750 72.790 C 239.750 72.560,238.488 71.886,238.188 71.956 C 238.084 71.980,238.000 71.906,238.000 71.790 C 238.000 71.560,236.738 70.886,236.438 70.956 C 236.334 70.980,236.250 70.906,236.250 70.790 C 236.250 70.560,234.988 69.886,234.688 69.956 C 234.584 69.980,234.500 69.906,234.500 69.790 C 234.500 69.560,233.238 68.886,232.938 68.956 C 232.834 68.980,232.750 68.906,232.750 68.790 C 232.750 68.560,231.488 67.886,231.188 67.956 C 231.084 67.980,231.000 67.906,231.000 67.790 C 231.000 67.560,229.738 66.886,229.438 66.956 C 229.334 66.980,229.250 66.906,229.250 66.790 C 229.250 66.560,227.988 65.886,227.688 65.956 C 227.584 65.980,227.500 65.906,227.500 65.790 C 227.500 65.560,226.238 64.886,225.938 64.956 C 225.834 64.980,225.750 64.906,225.750 64.790 C 225.750 64.560,224.488 63.886,224.188 63.956 C 224.084 63.980,224.000 63.906,224.000 63.790 C 224.000 63.560,222.738 62.886,222.438 62.956 C 222.334 62.980,222.250 62.906,222.250 62.790 C 222.250 62.560,220.988 61.886,220.688 61.956 C 220.584 61.980,220.500 61.906,220.500 61.790 C 220.500 61.560,219.238 60.886,218.938 60.956 C 218.834 60.980,218.750 60.906,218.750 60.790 C 218.750 60.560,217.488 59.886,217.188 59.956 C 217.084 59.980,217.000 59.906,217.000 59.790 C 217.000 59.560,215.738 58.886,215.438 58.956 C 215.334 58.980,215.250 58.906,215.250 58.790 C 215.250 58.560,213.988 57.886,213.688 57.956 C 213.584 57.980,213.500 57.906,213.500 57.790 C 213.500 57.560,212.238 56.886,211.938 56.956 C 211.834 56.980,211.750 56.906,211.750 56.790 C 211.750 56.560,210.488 55.886,210.188 55.956 C 210.084 55.980,210.000 55.906,210.000 55.790 C 210.000 55.560,208.738 54.886,208.438 54.956 C 208.334 54.980,208.250 54.906,208.250 54.790 C 208.250 54.560,206.988 53.886,206.688 53.956 C 206.584 53.980,206.500 53.906,206.500 53.790 C 206.500 53.560,205.238 52.886,204.938 52.956 C 204.834 52.980,204.750 52.906,204.750 52.790 C 204.750 52.560,203.488 51.886,203.188 51.956 C 203.084 51.980,203.000 51.906,203.000 51.790 C 203.000 51.560,201.738 50.886,201.438 50.956 C 201.334 50.980,201.250 50.906,201.250 50.790 C 201.250 50.675,200.963 50.450,200.613 50.290 C 199.863 49.949,199.994 49.948,199.375 50.299 M92.364 195.947 C 88.370 198.245,84.545 200.479,83.864 200.911 C 82.392 201.844,67.112 210.544,66.341 210.887 C 63.400 212.197,41.811 224.917,42.128 225.153 C 42.333 225.306,55.438 232.823,71.250 241.858 L 100.000 258.285 128.750 241.858 C 144.562 232.823,157.667 225.306,157.871 225.153 C 158.242 224.876,101.134 191.955,100.054 191.822 C 99.818 191.793,96.358 193.650,92.364 195.947 M270.691 208.328 C 247.541 221.567,241.832 224.931,242.129 225.153 C 242.333 225.306,255.438 232.823,271.250 241.858 L 300.000 258.285 328.750 241.858 C 344.562 232.823,357.667 225.306,357.872 225.153 C 358.207 224.903,339.209 213.753,332.662 210.357 C 331.817 209.918,327.841 207.662,323.828 205.342 C 304.966 194.441,300.234 191.751,299.941 191.765 C 299.767 191.774,286.605 199.227,270.691 208.328 " stroke="none" fill="#04bcd4" fill-rule="evenodd"></path><path id="path3" d="M141.573 116.671 L 141.547 149.861 142.072 150.243 C 142.589 150.618,143.390 151.087,144.875 151.883 C 145.287 152.104,146.075 152.557,146.625 152.890 C 147.175 153.224,147.963 153.674,148.375 153.890 C 148.787 154.107,149.575 154.557,150.125 154.890 C 150.675 155.224,151.463 155.674,151.875 155.890 C 152.287 156.107,153.075 156.557,153.625 156.890 C 154.175 157.224,154.963 157.674,155.375 157.890 C 155.787 158.107,156.575 158.557,157.125 158.890 C 157.675 159.224,158.463 159.674,158.875 159.890 C 159.287 160.107,160.075 160.557,160.625 160.890 C 161.175 161.224,161.963 161.674,162.375 161.890 C 162.787 162.107,163.575 162.557,164.125 162.890 C 164.675 163.224,165.463 163.674,165.875 163.890 C 166.287 164.107,167.075 164.557,167.625 164.890 C 168.175 165.224,168.963 165.674,169.375 165.890 C 169.787 166.107,170.575 166.557,171.125 166.890 C 171.675 167.224,172.463 167.674,172.875 167.890 C 173.287 168.107,174.075 168.557,174.625 168.890 C 175.175 169.224,175.963 169.674,176.375 169.890 C 176.787 170.107,177.575 170.557,178.125 170.890 C 178.675 171.224,179.463 171.674,179.875 171.890 C 180.287 172.107,181.075 172.557,181.625 172.890 C 182.175 173.224,182.963 173.674,183.375 173.890 C 183.787 174.107,184.575 174.557,185.125 174.890 C 185.675 175.224,186.463 175.674,186.875 175.890 C 187.287 176.107,188.075 176.557,188.625 176.890 C 189.175 177.224,189.963 177.674,190.375 177.890 C 190.787 178.107,191.575 178.557,192.125 178.890 C 192.675 179.224,193.463 179.674,193.875 179.890 C 194.287 180.107,195.075 180.557,195.625 180.890 C 196.175 181.224,196.983 181.664,197.420 181.869 C 197.858 182.075,198.280 182.346,198.357 182.472 C 198.435 182.598,198.837 182.818,199.250 182.962 L 200.000 183.224 199.999 149.924 L 199.998 116.625 171.117 100.125 C 155.233 91.050,142.093 83.593,141.918 83.554 C 141.661 83.496,141.594 89.913,141.573 116.671 M41.562 258.438 C 41.612 285.027,41.689 291.862,41.938 291.812 C 42.109 291.778,42.250 291.862,42.250 292.000 C 42.250 292.137,42.405 292.250,42.594 292.250 C 42.784 292.250,43.078 292.418,43.248 292.622 C 43.418 292.827,43.656 292.933,43.778 292.857 C 43.900 292.782,44.000 292.840,44.000 292.985 C 44.000 293.131,44.155 293.250,44.344 293.250 C 44.534 293.250,44.828 293.418,44.998 293.622 C 45.168 293.827,45.406 293.933,45.528 293.857 C 45.650 293.782,45.750 293.840,45.750 293.985 C 45.750 294.131,45.905 294.250,46.094 294.250 C 46.284 294.250,46.578 294.418,46.748 294.622 C 46.918 294.827,47.156 294.933,47.278 294.857 C 47.400 294.782,47.500 294.840,47.500 294.985 C 47.500 295.131,47.655 295.250,47.844 295.250 C 48.034 295.250,48.328 295.418,48.498 295.622 C 48.668 295.827,48.906 295.933,49.028 295.857 C 49.150 295.782,49.250 295.840,49.250 295.985 C 49.250 296.131,49.405 296.250,49.594 296.250 C 49.784 296.250,50.078 296.418,50.248 296.622 C 50.418 296.827,50.656 296.933,50.778 296.857 C 50.900 296.782,51.000 296.840,51.000 296.985 C 51.000 297.131,51.155 297.250,51.344 297.250 C 51.534 297.250,51.828 297.418,51.998 297.622 C 52.168 297.827,52.406 297.933,52.528 297.857 C 52.650 297.782,52.750 297.840,52.750 297.985 C 52.750 298.131,52.905 298.250,53.094 298.250 C 53.284 298.250,53.578 298.418,53.748 298.622 C 53.918 298.827,54.156 298.933,54.278 298.857 C 54.400 298.782,54.500 298.840,54.500 298.985 C 54.500 299.131,54.655 299.250,54.844 299.250 C 55.034 299.250,55.328 299.418,55.498 299.622 C 55.668 299.827,55.906 299.933,56.028 299.857 C 56.150 299.782,56.250 299.840,56.250 299.985 C 56.250 300.131,56.405 300.250,56.594 300.250 C 56.784 300.250,57.078 300.418,57.248 300.622 C 57.418 300.827,57.656 300.933,57.778 300.857 C 57.900 300.782,58.000 300.840,58.000 300.985 C 58.000 301.131,58.155 301.250,58.344 301.250 C 58.534 301.250,58.828 301.418,58.998 301.622 C 59.168 301.827,59.406 301.933,59.528 301.857 C 59.650 301.782,59.750 301.840,59.750 301.985 C 59.750 302.131,59.905 302.250,60.094 302.250 C 60.284 302.250,60.578 302.418,60.748 302.622 C 60.918 302.827,61.156 302.933,61.278 302.857 C 61.400 302.782,61.500 302.840,61.500 302.985 C 61.500 303.131,61.655 303.250,61.844 303.250 C 62.034 303.250,62.328 303.418,62.498 303.622 C 62.668 303.827,62.906 303.933,63.028 303.857 C 63.150 303.782,63.250 303.840,63.250 303.985 C 63.250 304.131,63.405 304.250,63.594 304.250 C 63.784 304.250,64.078 304.418,64.248 304.622 C 64.418 304.827,64.656 304.933,64.778 304.857 C 64.900 304.782,65.000 304.840,65.000 304.985 C 65.000 305.131,65.155 305.250,65.344 305.250 C 65.534 305.250,65.828 305.418,65.998 305.622 C 66.168 305.827,66.406 305.933,66.528 305.857 C 66.650 305.782,66.750 305.840,66.750 305.985 C 66.750 306.131,66.905 306.250,67.094 306.250 C 67.284 306.250,67.578 306.418,67.748 306.622 C 67.918 306.827,68.156 306.933,68.278 306.857 C 68.400 306.782,68.500 306.840,68.500 306.985 C 68.500 307.131,68.655 307.250,68.844 307.250 C 69.034 307.250,69.328 307.418,69.498 307.622 C 69.668 307.827,69.906 307.933,70.028 307.857 C 70.150 307.782,70.250 307.840,70.250 307.985 C 70.250 308.131,70.405 308.250,70.594 308.250 C 70.784 308.250,71.078 308.418,71.248 308.622 C 71.418 308.827,71.656 308.933,71.778 308.857 C 71.900 308.782,72.000 308.840,72.000 308.985 C 72.000 309.131,72.155 309.250,72.344 309.250 C 72.534 309.250,72.828 309.418,72.998 309.622 C 73.168 309.827,73.406 309.933,73.528 309.857 C 73.650 309.782,73.750 309.840,73.750 309.985 C 73.750 310.131,73.905 310.250,74.094 310.250 C 74.284 310.250,74.578 310.418,74.748 310.622 C 74.918 310.827,75.156 310.933,75.278 310.857 C 75.400 310.782,75.500 310.840,75.500 310.985 C 75.500 311.131,75.655 311.250,75.844 311.250 C 76.034 311.250,76.328 311.418,76.498 311.622 C 76.668 311.827,76.906 311.933,77.028 311.857 C 77.150 311.782,77.250 311.840,77.250 311.985 C 77.250 312.131,77.405 312.250,77.594 312.250 C 77.784 312.250,78.078 312.418,78.248 312.622 C 78.418 312.827,78.656 312.933,78.778 312.857 C 78.900 312.782,79.000 312.840,79.000 312.985 C 79.000 313.131,79.155 313.250,79.344 313.250 C 79.534 313.250,79.828 313.418,79.998 313.622 C 80.168 313.827,80.406 313.933,80.528 313.857 C 80.650 313.782,80.750 313.840,80.750 313.985 C 80.750 314.131,80.905 314.250,81.094 314.250 C 81.284 314.250,81.578 314.418,81.748 314.622 C 81.918 314.827,82.156 314.933,82.278 314.857 C 82.400 314.782,82.500 314.840,82.500 314.985 C 82.500 315.131,82.655 315.250,82.844 315.250 C 83.034 315.250,83.328 315.418,83.498 315.622 C 83.668 315.827,83.906 315.933,84.028 315.857 C 84.150 315.782,84.250 315.840,84.250 315.985 C 84.250 316.131,84.405 316.250,84.594 316.250 C 84.784 316.250,85.078 316.418,85.248 316.622 C 85.418 316.827,85.656 316.933,85.778 316.857 C 85.900 316.782,86.000 316.840,86.000 316.985 C 86.000 317.131,86.155 317.250,86.344 317.250 C 86.534 317.250,86.828 317.418,86.998 317.622 C 87.168 317.827,87.406 317.933,87.528 317.857 C 87.650 317.782,87.750 317.840,87.750 317.985 C 87.750 318.131,87.905 318.250,88.094 318.250 C 88.284 318.250,88.578 318.418,88.748 318.622 C 88.918 318.827,89.156 318.933,89.278 318.857 C 89.400 318.782,89.500 318.840,89.500 318.985 C 89.500 319.131,89.655 319.250,89.844 319.250 C 90.034 319.250,90.328 319.418,90.498 319.622 C 90.668 319.827,90.906 319.933,91.028 319.857 C 91.150 319.782,91.250 319.840,91.250 319.985 C 91.250 320.131,91.405 320.250,91.594 320.250 C 91.784 320.250,92.078 320.418,92.248 320.622 C 92.418 320.827,92.656 320.933,92.778 320.857 C 92.900 320.782,93.000 320.840,93.000 320.985 C 93.000 321.131,93.155 321.250,93.344 321.250 C 93.534 321.250,93.828 321.418,93.998 321.622 C 94.168 321.827,94.406 321.933,94.528 321.857 C 94.650 321.782,94.750 321.840,94.750 321.985 C 94.750 322.131,94.905 322.250,95.094 322.250 C 95.284 322.250,95.578 322.418,95.748 322.622 C 95.918 322.827,96.156 322.933,96.278 322.857 C 96.400 322.782,96.500 322.840,96.500 322.985 C 96.500 323.131,96.655 323.250,96.844 323.250 C 97.034 323.250,97.328 323.418,97.498 323.622 C 97.668 323.827,97.906 323.933,98.028 323.857 C 98.150 323.782,98.250 323.840,98.250 323.985 C 98.250 324.131,98.405 324.250,98.594 324.250 C 98.784 324.250,99.078 324.418,99.248 324.622 C 99.958 325.478,100.000 323.641,100.000 291.503 L 100.000 258.286 70.876 241.643 C 54.858 232.489,41.695 225.000,41.625 225.000 C 41.555 225.000,41.527 240.047,41.562 258.438 M241.562 258.438 C 241.612 285.027,241.689 291.862,241.938 291.812 C 242.109 291.778,242.250 291.862,242.250 292.000 C 242.250 292.137,242.405 292.250,242.594 292.250 C 242.784 292.250,243.078 292.418,243.248 292.622 C 243.418 292.827,243.656 292.933,243.778 292.857 C 243.900 292.782,244.000 292.840,244.000 292.985 C 244.000 293.131,244.155 293.250,244.344 293.250 C 244.534 293.250,244.828 293.418,244.998 293.622 C 245.168 293.827,245.406 293.933,245.528 293.857 C 245.650 293.782,245.750 293.840,245.750 293.985 C 245.750 294.131,245.905 294.250,246.094 294.250 C 246.284 294.250,246.578 294.418,246.748 294.622 C 246.918 294.827,247.156 294.933,247.278 294.857 C 247.400 294.782,247.500 294.840,247.500 294.985 C 247.500 295.131,247.655 295.250,247.844 295.250 C 248.034 295.250,248.328 295.418,248.498 295.622 C 248.668 295.827,248.906 295.933,249.028 295.857 C 249.150 295.782,249.250 295.840,249.250 295.985 C 249.250 296.131,249.405 296.250,249.594 296.250 C 249.784 296.250,250.078 296.418,250.248 296.622 C 250.418 296.827,250.656 296.933,250.778 296.857 C 250.900 296.782,251.000 296.840,251.000 296.985 C 251.000 297.131,251.155 297.250,251.344 297.250 C 251.534 297.250,251.828 297.418,251.998 297.622 C 252.168 297.827,252.406 297.933,252.528 297.857 C 252.650 297.782,252.750 297.840,252.750 297.985 C 252.750 298.131,252.905 298.250,253.094 298.250 C 253.284 298.250,253.578 298.418,253.748 298.622 C 253.918 298.827,254.156 298.933,254.278 298.857 C 254.400 298.782,254.500 298.840,254.500 298.985 C 254.500 299.131,254.655 299.250,254.844 299.250 C 255.034 299.250,255.328 299.418,255.498 299.622 C 255.668 299.827,255.906 299.933,256.028 299.857 C 256.150 299.782,256.250 299.840,256.250 299.985 C 256.250 300.131,256.405 300.250,256.594 300.250 C 256.784 300.250,257.076 300.415,257.243 300.617 C 257.411 300.819,257.622 300.961,257.711 300.933 C 257.933 300.865,274.700 310.467,274.887 310.769 C 274.968 310.901,275.139 310.943,275.267 310.864 C 275.395 310.785,275.500 310.840,275.500 310.985 C 275.500 311.131,275.655 311.250,275.844 311.250 C 276.034 311.250,276.328 311.418,276.498 311.622 C 276.668 311.827,276.906 311.933,277.028 311.857 C 277.150 311.782,277.250 311.840,277.250 311.985 C 277.250 312.131,277.405 312.250,277.594 312.250 C 277.784 312.250,278.078 312.418,278.248 312.622 C 278.418 312.827,278.656 312.933,278.778 312.857 C 278.900 312.782,279.000 312.840,279.000 312.985 C 279.000 313.131,279.155 313.250,279.344 313.250 C 279.534 313.250,279.828 313.418,279.998 313.622 C 280.168 313.827,280.406 313.933,280.528 313.857 C 280.650 313.782,280.750 313.840,280.750 313.985 C 280.750 314.131,280.905 314.250,281.094 314.250 C 281.284 314.250,281.578 314.418,281.748 314.622 C 281.918 314.827,282.156 314.933,282.278 314.857 C 282.400 314.782,282.500 314.840,282.500 314.985 C 282.500 315.131,282.655 315.250,282.844 315.250 C 283.034 315.250,283.328 315.418,283.498 315.622 C 283.668 315.827,283.906 315.933,284.028 315.857 C 284.150 315.782,284.250 315.840,284.250 315.985 C 284.250 316.131,284.405 316.250,284.594 316.250 C 284.784 316.250,285.078 316.418,285.248 316.622 C 285.418 316.827,285.656 316.933,285.778 316.857 C 285.900 316.782,286.000 316.840,286.000 316.985 C 286.000 317.131,286.155 317.250,286.344 317.250 C 286.534 317.250,286.828 317.418,286.998 317.622 C 287.168 317.827,287.406 317.933,287.528 317.857 C 287.650 317.782,287.750 317.840,287.750 317.985 C 287.750 318.131,287.905 318.250,288.094 318.250 C 288.284 318.250,288.578 318.418,288.748 318.622 C 288.918 318.827,289.156 318.933,289.278 318.857 C 289.400 318.782,289.500 318.840,289.500 318.985 C 289.500 319.131,289.655 319.250,289.844 319.250 C 290.034 319.250,290.328 319.418,290.498 319.622 C 290.668 319.827,290.906 319.933,291.028 319.857 C 291.150 319.782,291.250 319.840,291.250 319.985 C 291.250 320.131,291.405 320.250,291.594 320.250 C 291.784 320.250,292.078 320.418,292.248 320.622 C 292.418 320.827,292.656 320.933,292.778 320.857 C 292.900 320.782,293.000 320.840,293.000 320.985 C 293.000 321.131,293.155 321.250,293.344 321.250 C 293.534 321.250,293.828 321.418,293.998 321.622 C 294.168 321.827,294.406 321.933,294.528 321.857 C 294.650 321.782,294.750 321.840,294.750 321.985 C 294.750 322.131,294.905 322.250,295.094 322.250 C 295.284 322.250,295.578 322.418,295.748 322.622 C 295.918 322.827,296.156 322.933,296.278 322.857 C 296.400 322.782,296.500 322.840,296.500 322.985 C 296.500 323.131,296.655 323.250,296.844 323.250 C 297.034 323.250,297.328 323.418,297.498 323.622 C 297.668 323.827,297.906 323.933,298.028 323.857 C 298.150 323.782,298.250 323.840,298.250 323.985 C 298.250 324.131,298.405 324.250,298.594 324.250 C 298.784 324.250,299.078 324.418,299.248 324.622 C 299.958 325.478,300.000 323.641,300.000 291.503 L 300.000 258.286 270.876 241.643 C 254.858 232.489,241.695 225.000,241.625 225.000 C 241.555 225.000,241.527 240.047,241.562 258.438 " stroke="none" fill="#04acc4" fill-rule="evenodd"></path><path id="path4" d="M258.364 93.250 C 258.364 98.819,258.397 101.097,258.437 98.313 C 258.477 95.528,258.477 90.972,258.437 88.188 C 258.397 85.403,258.364 87.681,258.364 93.250 M258.250 136.050 C 258.181 143.846,258.210 150.140,258.315 150.035 C 258.419 149.931,258.475 143.552,258.440 135.860 L 258.375 121.875 258.250 136.050 M158.125 258.476 C 158.125 276.888,158.209 291.900,158.313 291.836 C 158.416 291.773,158.500 276.708,158.500 258.360 C 158.500 240.012,158.416 225.000,158.313 225.000 C 158.209 225.000,158.125 240.064,158.125 258.476 M358.125 258.476 C 358.125 276.888,358.209 291.900,358.313 291.836 C 358.416 291.773,358.500 276.708,358.500 258.360 C 358.500 240.012,358.416 225.000,358.313 225.000 C 358.209 225.000,358.125 240.064,358.125 258.476 " stroke="none" fill="#2ec5db" fill-rule="evenodd"></path></g></svg>